<svg width="20" height="13" viewBox="0 0 20 13" fill="none" xmlns="http://www.w3.org/2000/svg">
<g opacity="0.8">
<path d="M13.5559 11.8255V11.8266C12.1746 12.2764 10.7981 12.4998 9.42476 12.4998C8.21538 12.4998 7.0016 12.2782 5.78113 11.8304V11.8294V11.8255V11.8217V11.8179V11.8141V11.8103V11.8065V11.8027V11.7989V11.7951V11.7913V11.7875V11.7837V11.7798V11.776V11.7722V11.7684V11.7646V11.7608V11.757V11.7532V11.7494V11.7456V11.7418V11.738V11.7341V11.7303V11.7265V11.7227V11.7189V11.7151V11.7113V11.7075V11.7037V11.6999V11.6961V11.6923V11.6884V11.6846V11.6808V11.677V11.6732V11.6694V11.6656V11.6618V11.658V11.6542V11.6504V11.6465V11.6427V11.6389V11.6351V11.6313V11.6275V11.6237V11.6199V11.6161V11.6123V11.6085V11.6047V11.6008V11.597V11.5932V11.5894V11.5856V11.5818V11.578V11.5742V11.5704V11.5666V11.5628V11.559V11.5551V11.5513V11.5475V11.5437V11.5399V11.5361V11.5323V11.5285V11.5247V11.5209V11.5171V11.5133V11.5094V11.5056V11.5018V11.498V11.4942V11.4904V11.4866V11.4828V11.479V11.4752V11.4714V11.4676V11.4637V11.4599V11.4561V11.4523V11.4485V11.4447V11.4409V11.4371V11.4333V11.4295V11.4257V11.4218V11.418V11.4142V11.4104V11.4066V11.4028V11.399V11.3952V11.3914V11.3876V11.3838V11.38V11.3761V11.3723V11.3685V11.3647V11.3609V11.3571V11.3533V11.3495V11.3457V11.3419V11.3381V11.3343V11.3304V11.3266V11.3228V11.319V11.3152V11.3114V11.3076V11.3038V11.3V11.2962V11.2924V11.2886V11.2847V11.2809V11.2771V11.2733V11.2695V11.2657V11.2619V11.2581V11.2543V11.2505V11.2467V11.2428V11.239V11.2352V11.2314V11.2276V11.2238V11.22V11.2162V11.2124V11.2086V11.2048V11.201V11.1971V11.1933V11.1895V11.1857V11.1819V11.1781V11.1743V11.1705V11.1667V11.1629V11.1591V11.1553V11.1514V11.1476V11.1438V11.14V11.1362V11.1324V11.1286V11.1248V11.121V11.1172V11.1134V11.1096V11.1057V11.1019V11.0981V11.0943V11.0905V11.0867V11.0829V11.0791V11.0753V11.0715V11.0677V11.0639V11.06V11.0562V11.0524V11.0486V11.0448V11.041V11.0372V11.0334V11.0296V11.0258V11.022V11.0181V11.0143V11.0105V11.0067V11.0029V10.9991V10.9953V10.9915V10.9877V10.9839V10.9801V10.9763V10.9724V10.9686V10.9648V10.961V10.9572V10.9534V10.9496V10.9458V10.942V10.9382V10.9344V10.9306V10.9267V10.9229V10.9191V10.9153V10.9115V10.9077V10.9039V10.9001V10.8963V10.8925V10.8887V10.8849V10.881V10.8772V10.8734V10.8696V10.8658V10.862V10.8582V10.8544V10.8506V10.8468V10.843V10.8391V10.8353V10.8315V10.8277V10.8239V10.8201V10.8163V10.8125V10.8087V10.8049V10.8011V10.7973V10.7934V10.7896V10.7858V10.782V10.7782V10.7744V10.7706V10.7668V10.763V10.7592V10.7554V10.7516V10.7477V10.7439V10.7401V10.7363V10.7325V10.7287V10.7249V10.7211V10.7173V10.7135V10.7097V10.7059V10.702V10.6982V10.6944V10.6906V10.6868V10.683V10.6792V10.6754V10.6716V10.6678V10.664V10.6602V10.6563V10.6525V10.6487V10.6449V10.6411V10.6373V10.6335V10.6297V10.6259V10.6221V10.6183V10.6144V10.6106V10.6068V10.603V10.5992V10.5954V10.5916V10.5878V10.584V10.5802V10.5764V10.5726V10.5687V10.5649V10.5611V10.5573V10.5535V10.5497V10.5459V10.5421V10.5383V10.5345V10.5307V10.5269V10.523V10.5192V10.5154V10.5116V10.5078V10.504V10.5002V10.4964V10.4926V10.4888V10.485V10.4812V10.4773V10.4735V10.4697V10.4659V10.4621V10.4583V10.4545V10.4507V10.4469V10.4431V10.4393V10.4354V10.4316V10.4278V10.424V10.4202V10.4164V10.4126V10.4088V10.405V10.4012V10.3974V10.3936V10.3897V10.3859V10.3821V10.3783V10.3745V10.3707V10.3669V10.3631V10.3593V10.3555V10.3517V10.3479V10.344V10.3402V10.3364V10.3326V10.3288V10.325V10.3212V10.3174V10.3136V10.3098V10.306V10.3022V10.2983V10.2945V10.2907V10.2869V10.2831V10.2793V10.2755V10.2717V10.2679V10.2641V10.2603V10.2565V10.2526V10.2488V10.245V10.2412V10.2374V10.2336V10.2298V10.226V10.2222V10.2184V10.2146V10.2107V10.2069V10.2031V10.1993V10.1955V10.1917V10.1879V10.1841V10.1803V10.1765V10.1727V10.1689V10.165V10.1612V10.1574V10.1536V10.1498V10.146V10.1422V10.1384V10.1346V10.1308V10.127V10.1232V10.1193V10.1155V10.1117V10.1079V10.1041V10.1003V10.0965V10.0927V10.0889V10.0851V10.0813V10.0775V10.0736V10.0698V10.066V10.0622V10.0584V10.0546V10.0508V10.047V10.0432V10.0394V10.0356V10.0318V10.0279V10.0241V10.0203V10.0165V10.0127V10.0089V10.0051V10.0013V9.99747V9.99367C5.78113 8.58067 6.92354 7.48109 8.30031 7.40625H8.30301H8.30824H8.31348H8.31872H8.32395H8.32919H8.33443H8.33966H8.3449H8.35014H8.35537H8.36061H8.36585H8.37108H8.37632H8.38156H8.38679H8.39203H8.39727H8.4025H8.40774H8.41298H8.41821H8.42345H8.42869H8.43392H8.43916H8.4444H8.44963H8.45487H8.46011H8.46534H8.47058H8.47582H8.48105H8.48629H8.49153H8.49676H8.502H8.50724H8.51247H8.51771H8.52295H8.52818H8.53342H8.53866H8.54389H8.54913H8.55437H8.5596H8.56484H8.57008H8.57531H8.58055H8.58579H8.59102H8.59626H8.6015H8.60673H8.61197H8.61721H8.62244H8.62768H8.63292H8.63815H8.64339H8.64863H8.65386H8.6591H8.66434H8.66957H8.67481H8.68005H8.68528H8.69052H8.69576H8.70099H8.70623H8.71147H8.7167H8.72194H8.72718H8.73241H8.73765H8.74289H8.74812H8.75336H8.7586H8.76383H8.76907H8.77431H8.77954H8.78478H8.79002H8.79525H8.80049H8.80573H8.81096H8.8162H8.82144H8.82667H8.83191H8.83715H8.84238H8.84762H8.85286H8.85809H8.86333H8.86857H8.8738H8.87904H8.88428H8.88951H8.89475H8.89999H8.90522H8.91046H8.9157H8.92093H8.92617H8.93141H8.93664H8.94188H8.94712H8.95235H8.95759H8.96283H8.96806H8.9733H8.97854H8.98377H8.98901H8.99425H8.99948H9.00472H9.00996H9.01519H9.02043H9.02567H9.0309H9.03614H9.04138H9.04661H9.05185H9.05709H9.06232H9.06756H9.0728H9.07803H9.08327H9.08851H9.09374H9.09898H9.10422H9.10945H9.11469H9.11993H9.12516H9.1304H9.13564H9.14087H9.14611H9.15135H9.15658H9.16182H9.16706H9.17229H9.17753H9.18277H9.188H9.19324H9.19848H9.20371H9.20895H9.21419H9.21942H9.22466H9.2299H9.23513H9.24037H9.24561H9.25084H9.25608H9.26132H9.26655H9.27179H9.27703H9.28226H9.2875H9.29274H9.29797H9.30321H9.30845H9.31368H9.31892H9.32416H9.32939H9.33463H9.33987H9.3451H9.35034H9.35558H9.36081H9.36605H9.37129H9.37652H9.38176H9.387H9.39223H9.39747H9.40271H9.40794H9.41318H9.41842H9.42365H9.42889H9.43413H9.43936H9.4446H9.44984H9.45507H9.46031H9.46555H9.47078H9.47602H9.48126H9.48649H9.49173H9.49697H9.5022H9.50744H9.51268H9.51791H9.52315H9.52839H9.53362H9.53886H9.5441H9.54933H9.55457H9.55981H9.56504H9.57028H9.57552H9.58075H9.58599H9.59123H9.59646H9.6017H9.60694H9.61217H9.61741H9.62265H9.62788H9.63312H9.63836H9.64359H9.64883H9.65407H9.6593H9.66454H9.66978H9.67501H9.68025H9.68549H9.69072H9.69596H9.7012H9.70643H9.71167H9.71691H9.72214H9.72738H9.73262H9.73785H9.74309H9.74833H9.75356H9.7588H9.76404H9.76927H9.77451H9.77975H9.78498H9.79022H9.79546H9.80069H9.80593H9.81117H9.8164H9.82164H9.82688H9.83211H9.83735H9.84259H9.84782H9.85306H9.8583H9.86353H9.86877H9.87401H9.87924H9.88448H9.88972H9.89495H9.90019H9.90543H9.91066H9.9159H9.92114H9.92637H9.93161H9.93685H9.94208H9.94732H9.95256H9.95779H9.96303H9.96827H9.9735H9.97874H9.98398H9.98921H9.99445H9.99969H10.0049H10.0102H10.0154H10.0206H10.0259H10.0311H10.0363H10.0416H10.0468H10.0521H10.0573H10.0625H10.0678H10.073H10.0782H10.0835H10.0887H10.0939H10.0992H10.1044H10.1097H10.1149H10.1201H10.1254H10.1306H10.1358H10.1411H10.1463H10.1516H10.1568H10.162H10.1673H10.1725H10.1777H10.183H10.1882H10.1934H10.1987H10.2039H10.2092H10.2144H10.2196H10.2249H10.2301H10.2353H10.2406H10.2458H10.251H10.2563H10.2615H10.2668H10.272H10.2772H10.2825H10.2877H10.2929H10.2982H10.3034H10.3087H10.3139H10.3191H10.3244H10.3296H10.3348H10.3401H10.3453H10.3505H10.3558H10.361H10.3663H10.3715H10.3767H10.382H10.3872H10.3924H10.3977H10.4029H10.4081H10.4134H10.4186H10.4239H10.4291H10.4343H10.4396H10.4448H10.45H10.4553H10.4605H10.4658H10.471H10.4762H10.4815H10.4867H10.4919H10.4972H10.5024H10.5076H10.5129H10.5181H10.5234H10.5286H10.5338H10.5391H10.5443H10.5495H10.5548H10.56H10.5652H10.5705H10.5757H10.581H10.5862H10.5914H10.5967H10.6019H10.6071H10.6124H10.6176H10.6229H10.6281H10.6333H10.6386H10.6438H10.649H10.6543H10.6595H10.6647H10.67H10.6752H10.6805H10.6857H10.6909H10.6962H10.7014H10.7066H10.7119H10.7171H10.7223H10.7276H10.7328H10.7381H10.7433H10.7485H10.7538H10.759H10.7642H10.7695H10.7747H10.78H10.7852H10.7904H10.7957H10.8009H10.8061H10.8114H10.8166H10.8218H10.8271H10.8323H10.8376H10.8428H10.848H10.8533H10.8585H10.8637H10.869H10.8742H10.8794H10.8847H10.8899H10.8952H10.9004H10.9056H10.9109H10.9161H10.9213H10.9266H10.9318H10.9371H10.9423H10.9475H10.9528H10.958H10.9632H10.9685C12.3812 7.40625 13.4746 8.54599 13.4746 9.99367V10.0552L13.4896 10.1149C13.5535 10.3707 13.5559 10.6344 13.5559 10.9686V10.9705V10.9724V10.9744V10.9763V10.9782V10.9801V10.982V10.9839V10.9858V10.9877V10.9896V10.9915V10.9934V10.9953V10.9972V10.9991V11.001V11.0029V11.0048V11.0067V11.0086V11.0105V11.0124V11.0143V11.0162V11.0181V11.0201V11.022V11.0239V11.0258V11.0277V11.0296V11.0315V11.0334V11.0353V11.0372V11.0391V11.041V11.0429V11.0448V11.0467V11.0486V11.0505V11.0524V11.0543V11.0562V11.0581V11.06V11.0619V11.0639V11.0658V11.0677V11.0696V11.0715V11.0734V11.0753V11.0772V11.0791V11.081V11.0829V11.0848V11.0867V11.0886V11.0905V11.0924V11.0943V11.0962V11.0981V11.1V11.1019V11.1038V11.1057V11.1076V11.1096V11.1115V11.1134V11.1153V11.1172V11.1191V11.121V11.1229V11.1248V11.1267V11.1286V11.1305V11.1324V11.1343V11.1362V11.1381V11.14V11.1419V11.1438V11.1457V11.1476V11.1495V11.1514V11.1534V11.1553V11.1572V11.1591V11.161V11.1629V11.1648V11.1667V11.1686V11.1705V11.1724V11.1743V11.1762V11.1781V11.18V11.1819V11.1838V11.1857V11.1876V11.1895V11.1914V11.1933V11.1952V11.1971V11.1991V11.201V11.2029V11.2048V11.2067V11.2086V11.2105V11.2124V11.2143V11.2162V11.2181V11.22V11.2219V11.2238V11.2257V11.2276V11.2295V11.2314V11.2333V11.2352V11.2371V11.239V11.2409V11.2429V11.2448V11.2467V11.2486V11.2505V11.2524V11.2543V11.2562V11.2581V11.26V11.2619V11.2638V11.2657V11.2676V11.2695V11.2714V11.2733V11.2752V11.2771V11.279V11.2809V11.2828V11.2847V11.2866V11.2886V11.2905V11.2924V11.2943V11.2962V11.2981V11.3V11.3019V11.3038V11.3057V11.3076V11.3095V11.3114V11.3133V11.3152V11.3171V11.319V11.3209V11.3228V11.3247V11.3266V11.3285V11.3304V11.3323V11.3343V11.3362V11.3381V11.34V11.3419V11.3438V11.3457V11.3476V11.3495V11.3514V11.3533V11.3552V11.3571V11.359V11.3609V11.3628V11.3647V11.3666V11.3685V11.3704V11.3723V11.3742V11.3761V11.3781V11.38V11.3819V11.3838V11.3857V11.3876V11.3895V11.3914V11.3933V11.3952V11.3971V11.399V11.4009V11.4028V11.4047V11.4066V11.4085V11.4104V11.4123V11.4142V11.4161V11.418V11.4199V11.4218V11.4238V11.4257V11.4276V11.4295V11.4314V11.4333V11.4352V11.4371V11.439V11.4409V11.4428V11.4447V11.4466V11.4485V11.4504V11.4523V11.4542V11.4561V11.458V11.4599V11.4618V11.4637V11.4656V11.4676V11.4695V11.4714V11.4733V11.4752V11.4771V11.479V11.4809V11.4828V11.4847V11.4866V11.4885V11.4904V11.4923V11.4942V11.4961V11.498V11.4999V11.5018V11.5037V11.5056V11.5075V11.5094V11.5113V11.5133V11.5152V11.5171V11.519V11.5209V11.5228V11.5247V11.5266V11.5285V11.5304V11.5323V11.5342V11.5361V11.538V11.5399V11.5418V11.5437V11.5456V11.5475V11.5494V11.5513V11.5532V11.5551V11.5571V11.559V11.5609V11.5628V11.5647V11.5666V11.5685V11.5704V11.5723V11.5742V11.5761V11.578V11.5799V11.5818V11.5837V11.5856V11.5875V11.5894V11.5913V11.5932V11.5951V11.597V11.5989V11.6008V11.6028V11.6047V11.6066V11.6085V11.6104V11.6123V11.6142V11.6161V11.618V11.6199V11.6218V11.6237V11.6256V11.6275V11.6294V11.6313V11.6332V11.6351V11.637V11.6389V11.6408V11.6427V11.6446V11.6465V11.6485V11.6504V11.6523V11.6542V11.6561V11.658V11.6599V11.6618V11.6637V11.6656V11.6675V11.6694V11.6713V11.6732V11.6751V11.677V11.6789V11.6808V11.6827V11.6846V11.6865V11.6884V11.6903V11.6923V11.6942V11.6961V11.698V11.6999V11.7018V11.7037V11.7056V11.7075V11.7094V11.7113V11.7132V11.7151V11.717V11.7189V11.7208V11.7227V11.7246V11.7265V11.7284V11.7303V11.7322V11.7341V11.736V11.738V11.7399V11.7418V11.7437V11.7456V11.7475V11.7494V11.7513V11.7532V11.7551V11.757V11.7589V11.7608V11.7627V11.7646V11.7665V11.7684V11.7703V11.7722V11.7741V11.776V11.7779V11.7798V11.7818V11.7837V11.7856V11.7875V11.7894V11.7913V11.7932V11.7951V11.797V11.7989V11.8008V11.8027V11.8046V11.8065V11.8084V11.8103V11.8122V11.8141V11.816V11.8179V11.8198V11.8217V11.8236V11.8255Z" stroke="#272727"/>
<path d="M12.9726 5.69006C12.9769 5.68584 12.9809 5.68194 12.9847 5.67826C13.1084 5.6488 13.2207 5.63248 13.3547 5.61333L13.3614 5.61238C13.4852 5.5947 13.6281 5.57429 13.7899 5.53711H13.7929H13.7977H13.8025H13.8073H13.8121H13.8168H13.8216H13.8264H13.8312H13.836H13.8408H13.8456H13.8504H13.8552H13.8601H13.8649H13.8697H13.8745H13.8793H13.8841H13.8889H13.8937H13.8986H13.9034H13.9082H13.913H13.9179H13.9227H13.9275H13.9324H13.9372H13.942H13.9469H13.9517H13.9565H13.9614H13.9662H13.9711H13.9759H13.9808H13.9856H13.9905H13.9953H14.0002H14.005H14.0099H14.0147H14.0196H14.0244H14.0293H14.0342H14.039H14.0439H14.0488H14.0536H14.0585H14.0634H14.0682H14.0731H14.078H14.0829H14.0877H14.0926H14.0975H14.1024H14.1073H14.1122H14.117H14.1219H14.1268H14.1317H14.1366H14.1415H14.1464H14.1513H14.1562H14.1611H14.166H14.1709H14.1758H14.1807H14.1856H14.1905H14.1954H14.2003H14.2052H14.2101H14.215H14.2199H14.2248H14.2297H14.2347H14.2396H14.2445H14.2494H14.2543H14.2592H14.2642H14.2691H14.274H14.2789H14.2839H14.2888H14.2937H14.2986H14.3036H14.3085H14.3134H14.3184H14.3233H14.3282H14.3332H14.3381H14.343H14.348H14.3529H14.3579H14.3628H14.3677H14.3727H14.3776H14.3826H14.3875H14.3925H14.3974H14.4024H14.4073H14.4122H14.4172H14.4222H14.4271H14.4321H14.437H14.442H14.4469H14.4519H14.4568H14.4618H14.4667H14.4717H14.4767H14.4816H14.4866H14.4915H14.4965H14.5015H14.5064H14.5114H14.5164H14.5213H14.5263H14.5313H14.5362H14.5412H14.5462H14.5511H14.5561H14.5611H14.5661H14.571H14.576H14.581H14.586H14.5909H14.5959H14.6009H14.6059H14.6108H14.6158H14.6208H14.6258H14.6308H14.6357H14.6407H14.6457H14.6507H14.6557H14.6606H14.6656H14.6706H14.6756H14.6806H14.6856H14.6905H14.6955H14.7005H14.7055H14.7105H14.7155H14.7205H14.7255H14.7304H14.7354H14.7404H14.7454H14.7504H14.7554H14.7604H14.7654H14.7704H14.7754H14.7803H14.7853H14.7903H14.7953H14.8003H14.8053H14.8103H14.8153H14.8203H14.8253H14.8303H14.8353H14.8403H14.8453H14.8503H14.8553H14.8603H14.8653H14.8703H14.8752H14.8802H14.8852H14.8902H14.8952H14.9002H14.9052H14.9102H14.9152H14.9202H14.9252H14.9302H14.9352H14.9402H14.9452H14.9502H14.9552H14.9602H14.9652H14.9702H14.9752H14.9802H14.9852H14.9902H14.9952H15.0002H15.0052H15.0102H15.0152H15.0202H15.0252H15.0302H15.0352H15.0402H15.0452H15.0502H15.0552H15.0602H15.0652H15.0702H15.0752H15.0802H15.0852H15.0902H15.0952H15.1002H15.1052H15.1102H15.1151H15.1201H15.1251H15.1301H15.1351H15.1401H15.1451H15.1501H15.1551H15.1601H15.1651H15.1701H15.1751H15.1801H15.1851H15.1901H15.1951H15.2001H15.205H15.21H15.215H15.22H15.225H15.23H15.235H15.24H15.245H15.25H15.255H15.2599H15.2649H15.2699H15.2749H15.2799H15.2849H15.2899H15.2948H15.2998H15.3048H15.3098H15.3148H15.3198H15.3247H15.3297H15.3347H15.3397H15.3447H15.3497H15.3546H15.3596H15.3646H15.3696H15.3745H15.3795H15.3845H15.3895H15.3944H15.3994H15.4044H15.4094H15.4143H15.4193H15.4243H15.4293H15.4342H15.4392H15.4442H15.4491H15.4541H15.4591H15.464H15.469H15.474H15.4789H15.4839H15.4889H15.4938H15.4988H15.5037H15.5087H15.5137H15.5186H15.5236H15.5285H15.5335H15.5384H15.5434H15.5483H15.5533H15.5583H15.5632H15.5682H15.5731H15.5781H15.583H15.5879H15.5929H15.5978H15.6028H15.6077H15.6127H15.6176H15.6226H15.6275H15.6324H15.6374H15.6423H15.6472H15.6522H15.6571H15.662H15.667H15.6719H15.6768H15.6818H15.6867H15.6916H15.6965H15.7015H15.7064H15.7113H15.7162H15.7212H15.7261H15.731H15.7359H15.7408H15.7457H15.7507H15.7556H15.7605H15.7654H15.7703H15.7752H15.7801H15.785H15.7899H15.7948H15.7997H15.8046H15.8095H15.8144H15.8193H15.8242H15.8291H15.834H15.8389H15.8438H15.8487H15.8536H15.8585H15.8634H15.8682H15.8731H15.878H15.8829H15.8878H15.8927H15.8975H15.9024H15.9073H15.9122H15.917H15.9219H15.9268H15.9316H15.9365H15.9414H15.9462H15.9511H15.956H15.9608H15.9657H15.9705H15.9754H15.9802H15.9851H15.9899H15.9948H15.9996H16.0045H16.0093H16.0142H16.019H16.0239H16.0287H16.0335H16.0384H16.0432H16.048H16.0529H16.0577H16.0625H16.0674H16.0722H16.077H16.0818H16.0867H16.0915H16.0963H16.1011H16.1059H16.1107H16.1155H16.1204H16.1252H16.13H16.1348H16.1396H16.1444H16.1492H16.154H16.1588H16.1636H16.1684H16.1731H16.1779H16.1827H16.1875H16.1923H16.1971H16.2018H16.2066H16.2114H16.2162H16.2209H16.2257H16.2305H16.2353H16.24H16.2448H16.2495C17.6711 5.53711 18.837 6.68593 18.837 8.20577V8.20958V8.21339V8.2172V8.22101V8.22482V8.22862V8.23243V8.23624V8.24005V8.24386V8.24767V8.25147V8.25528V8.25909V8.2629V8.26671V8.27052V8.27433V8.27813V8.28194V8.28575V8.28956V8.29337V8.29718V8.30098V8.30479V8.3086V8.31241V8.31622V8.32003V8.32384V8.32764V8.33145V8.33526V8.33907V8.34288V8.34669V8.3505V8.3543V8.35811V8.36192V8.36573V8.36954V8.37335V8.37715V8.38096V8.38477V8.38858V8.39239V8.3962V8.40001V8.40381V8.40762V8.41143V8.41524V8.41905V8.42286V8.42667V8.43047V8.43428V8.43809V8.4419V8.44571V8.44952V8.45332V8.45713V8.46094V8.46475V8.46856V8.47237V8.47618V8.47998V8.48379V8.4876V8.49141V8.49522V8.49903V8.50283V8.50664V8.51045V8.51426V8.51807V8.52188V8.52569V8.52949V8.5333V8.53711V8.54092V8.54473V8.54854V8.55235V8.55615V8.55996V8.56377V8.56758V8.57139V8.5752V8.579V8.58281V8.58662V8.59043V8.59424V8.59805V8.60186V8.60566V8.60947V8.61328V8.61709V8.6209V8.62471V8.62852V8.63232V8.63613V8.63994V8.64375V8.64756V8.65137V8.65517V8.65898V8.66279V8.6666V8.67041V8.67422V8.67803V8.68183V8.68564V8.68945V8.69326V8.69707V8.70088V8.70468V8.70849V8.7123V8.71611V8.71992V8.72373V8.72754V8.73134V8.73515V8.73896V8.74277V8.74658V8.75039V8.7542V8.758V8.76181V8.76562V8.76943V8.77324V8.77705V8.78085V8.78466V8.78847V8.79228V8.79609V8.7999V8.80371V8.80751V8.81132V8.81513V8.81894V8.82275V8.82656V8.83037V8.83417V8.83798V8.84179V8.8456V8.84941V8.85322V8.85702V8.86083V8.86464V8.86845V8.87226V8.87607V8.87988V8.88368V8.88749V8.8913V8.89511V8.89892V8.90273V8.90654V8.91034V8.91415V8.91796V8.92177V8.92558V8.92939V8.93319V8.937V8.94081V8.94462V8.94843V8.95224V8.95605V8.95985V8.96366V8.96747V8.97128V8.97509V8.9789V8.9827V8.98651V8.99032V8.99413V8.99794V9.00175V9.00556V9.00936V9.01317V9.01698V9.02079V9.0246V9.02841V9.03222V9.03602V9.03983V9.04364V9.04745V9.05126V9.05507V9.05887V9.06268V9.06649V9.0703V9.07411V9.07792V9.08173V9.08553V9.08934V9.09315V9.09696V9.10077V9.10458V9.10839V9.11219V9.116V9.11981V9.12362V9.12743V9.13124V9.13504V9.13885V9.14266V9.14647V9.15028V9.15409V9.1579V9.1617V9.16551V9.16932V9.17313V9.17694V9.18075V9.18456V9.18836V9.19217V9.19598V9.19979V9.2036V9.20741V9.21121V9.21502V9.21883V9.22264V9.22645V9.23026V9.23407V9.23787V9.24168V9.24549V9.2493V9.25311V9.25692V9.26073V9.26453V9.26834V9.27215V9.27596V9.27977V9.28358V9.28738V9.29119V9.295V9.29881V9.30262V9.30643V9.31024V9.31404V9.31785V9.32166V9.32547V9.32928V9.33309V9.33689V9.3407V9.34451V9.34832V9.35213V9.35594V9.35975V9.36355V9.36736V9.37117V9.37498V9.37879V9.3826V9.3864V9.39021V9.39402V9.39783V9.40164V9.40545V9.40926V9.41306V9.41687V9.42068V9.42449V9.4283V9.43211V9.43592V9.43972V9.44353V9.44734V9.45115V9.45496V9.45877V9.46257V9.46638V9.47019V9.474V9.47781V9.48162V9.48543V9.48923V9.49304V9.49685V9.50066V9.50447V9.50828V9.51209V9.51589V9.5197V9.52351V9.52732V9.53113V9.53494V9.53874V9.54255V9.54636V9.55017V9.55398V9.55779V9.5616V9.5654V9.56921V9.57302V9.57683V9.58064V9.58445V9.58826V9.59206V9.59587V9.59968V9.60349V9.6073V9.61111V9.61491V9.61872V9.62253V9.62634V9.63015V9.63396V9.63777V9.64157V9.64538V9.64919V9.653V9.65681V9.66062V9.66443V9.66823V9.67204V9.67585V9.67966V9.68347V9.68728V9.69108V9.69489V9.6987V9.70251V9.70632V9.71013V9.71394V9.71774V9.72155V9.72536V9.72917V9.73298V9.73679V9.74059V9.7444V9.74821V9.75202V9.75583V9.75964V9.76345V9.76725V9.77106V9.77487V9.77868V9.78249V9.7863V9.79011V9.79391V9.79772V9.80153V9.80534V9.80915V9.81296V9.81676V9.82057V9.82438V9.82819V9.832V9.83581V9.83962V9.84342V9.84723V9.85104V9.85485V9.85866V9.86247V9.86628V9.87008V9.87389V9.8777V9.88151V9.88532V9.88913V9.89293V9.89674V9.90055V9.90436V9.90817V9.91198V9.91579V9.91959V9.9234V9.92721V9.93102V9.93483V9.93864V9.94245V9.94625V9.95006V9.95387V9.95768V9.96149V9.9653V9.9691V9.97291V9.97672V9.98053V9.98434V9.98815V9.99196V9.99576V9.99596C17.7251 10.4275 16.5448 10.5927 15.2781 10.6247C15.2534 10.4379 15.248 10.2539 15.2419 10.0415C15.2401 9.98133 15.2383 9.91891 15.236 9.85351C15.2256 9.56354 15.2044 9.23169 15.1077 8.8891C14.7627 7.51837 13.925 6.62225 12.7275 6.07143C12.8015 5.94134 12.8807 5.81536 12.9726 5.69006Z" stroke="#272727"/>
<path d="M4.54495 7.88071C5.03338 6.96065 5.8537 6.27409 7.0188 5.83189C6.99883 5.78017 6.98731 5.73114 6.98731 5.68788C6.84668 5.26598 6.58433 5.20921 6.30561 5.14891C6.26228 5.13953 6.21856 5.13007 6.17483 5.11914L4.54495 7.88071ZM4.54495 7.88071C4.12079 8.67971 3.96977 9.61199 4.0121 10.6315M4.54495 7.88071L4.0121 10.6315M4.0121 10.6315H4.01163H4.01068H4.00972H4.00877H4.00781H4.00686H4.00591H4.00495H4.004H4.00305H4.00209H4.00114H4.00019H3.99924H3.99828H3.99733H3.99638H3.99543H3.99447H3.99352H3.99257H3.99162H3.99066H3.98971H3.98876H3.98781H3.98685H3.9859H3.98495H3.984H3.98305H3.98209H3.98114C2.78038 10.6315 1.64611 10.413 0.5 10.0395V10.0393V10.0355V10.0318V10.028V10.0243V10.0205V10.0168V10.0131V10.0093V10.0056V10.0018V9.9981V9.99436V9.99063V9.98689V9.98316V9.97943V9.9757V9.97198V9.96825V9.96453V9.96081V9.95708V9.95337V9.94965V9.94593V9.94222V9.9385V9.93479V9.93108V9.92737V9.92366V9.91996V9.91625V9.91255V9.90884V9.90514V9.90144V9.89775V9.89405V9.89035V9.88666V9.88297V9.87928V9.87559V9.8719V9.86821V9.86452V9.86084V9.85715V9.85347V9.84979V9.84611V9.84243V9.83876V9.83508V9.83141V9.82773V9.82406V9.82039V9.81672V9.81305V9.80938V9.80572V9.80205V9.79839V9.79472V9.79106V9.7874V9.78374V9.78008V9.77643V9.77277V9.76911V9.76546V9.76181V9.75816V9.75451V9.75086V9.74721V9.74356V9.73991V9.73627V9.73263V9.72898V9.72534V9.7217V9.71806V9.71442V9.71078V9.70714V9.70351V9.69987V9.69624V9.69261V9.68897V9.68534V9.68171V9.67808V9.67445V9.67083V9.6672V9.66357V9.65995V9.65632V9.6527V9.64908V9.64546V9.64184V9.63822V9.6346V9.63098V9.62736V9.62375V9.62013V9.61652V9.6129V9.60929V9.60568V9.60206V9.59845V9.59484V9.59123V9.58763V9.58402V9.58041V9.5768V9.5732V9.56959V9.56599V9.56239V9.55878V9.55518V9.55158V9.54798V9.54438V9.54078V9.53718V9.53358V9.52998V9.52639V9.52279V9.51919V9.5156V9.512V9.50841V9.50482V9.50122V9.49763V9.49404V9.49045V9.48686V9.48327V9.47968V9.47609V9.4725V9.46891V9.46533V9.46174V9.45815V9.45457V9.45098V9.44739V9.44381V9.44023V9.43664V9.43306V9.42948V9.42589V9.42231V9.41873V9.41515V9.41157V9.40799V9.40441V9.40083V9.39725V9.39367V9.39009V9.38651V9.38293V9.37936V9.37578V9.3722V9.36863V9.36505V9.36147V9.3579V9.35432V9.35075V9.34717V9.3436V9.34002V9.33645V9.33287V9.3293V9.32573V9.32215V9.31858V9.31501V9.31143V9.30786V9.30429V9.30072V9.29714V9.29357V9.29V9.28643V9.28286V9.27929V9.27571V9.27214V9.26857V9.265V9.26143V9.25786V9.25429V9.25072V9.24715V9.24358V9.24001V9.23643V9.23286V9.22929V9.22572V9.22215V9.21858V9.21501V9.21144V9.20787V9.2043V9.20073V9.19716V9.19359V9.19002V9.18645V9.18288V9.17931V9.17573V9.17216V9.16859V9.16502V9.16145V9.15788V9.15431V9.15073V9.14716V9.14359V9.14002V9.13645V9.13287V9.1293V9.12573V9.12215V9.11858V9.11501V9.11143V9.10786V9.10428V9.10071V9.09714V9.09356V9.08998V9.08641V9.08283V9.07926V9.07568V9.0721V9.06853V9.06495V9.06137V9.05779V9.05422V9.05064V9.04706V9.04348V9.0399V9.03632V9.03274V9.02916V9.02558V9.02199V9.01841V9.01483V9.01125V9.00766V9.00408V9.0005V8.99691V8.99333V8.98974V8.98615V8.98257V8.97898V8.97539V8.97181V8.96822V8.96463V8.96104V8.95745V8.95386V8.95027V8.94668V8.94308V8.93949V8.9359V8.9323V8.92871V8.92511V8.92152V8.91792V8.91432V8.91073V8.90713V8.90353V8.89993V8.89633V8.89273V8.88913V8.88552V8.88192V8.87832V8.87471V8.87111V8.8675V8.8639V8.86029V8.85668V8.85307V8.84946V8.84585V8.84224V8.83863V8.83502V8.83141V8.82779V8.82418V8.82056V8.81694V8.81333V8.80971V8.80609V8.80247V8.79885V8.79523V8.79161V8.78798V8.78436V8.78073V8.77711V8.77348V8.76985V8.76622V8.7626V8.75896V8.75533V8.7517V8.74807V8.74443V8.7408V8.73716V8.73353V8.72989V8.72625V8.72261V8.71897V8.71532V8.71168V8.70804V8.70439V8.70075V8.6971V8.69345V8.6898V8.68615V8.6825V8.67885V8.67519V8.67154V8.66788V8.66422V8.66057V8.65691V8.65324V8.64958V8.64592V8.64226V8.63859V8.63492V8.63126V8.62759V8.62392V8.62025V8.61658V8.6129V8.60923V8.60555V8.60187V8.59819V8.59452V8.59083V8.58715V8.58347V8.57978V8.5761V8.57241V8.56872V8.56503V8.56134V8.55765V8.55395V8.55026V8.54656V8.54286V8.53916V8.53546V8.53176V8.52806V8.52435V8.52064V8.51694V8.51323V8.50952V8.5058V8.50209V8.49838V8.49466V8.49094V8.48722V8.4835V8.47978V8.47605V8.47233V8.4686V8.46487V8.46114V8.45741V8.45368V8.44995V8.44621V8.44247V8.43873V8.43499V8.43125V8.42751V8.42376V8.42001V8.41626V8.41251V8.40876V8.40501V8.40125V8.3975V8.39374V8.38998V8.38622V8.38245V8.37869V8.37492V8.37115V8.36738V8.36361V8.35984V8.35606V8.35228V8.34851V8.34473V8.34094V8.33716V8.33337V8.32959V8.3258V8.32201V8.31821V8.31442V8.31062V8.30682V8.30302V8.29922V8.29542V8.29161V8.2878C0.5 6.77649 1.65735 5.61914 3.16866 5.61914H3.17342H3.17818H3.18295H3.18771H3.19247H3.19723H3.20199H3.20675H3.21151H3.21627H3.22103H3.22579H3.23055H3.23531H3.24007H3.24484H3.2496H3.25436H3.25912H3.26388H3.26864H3.2734H3.27816H3.28293H3.28769H3.29245H3.29721H3.30197H3.30674H3.3115H3.31626H3.32102H3.32579H3.33055H3.33531H3.34007H3.34484H3.3496H3.35436H3.35913H3.36389H3.36865H3.37342H3.37818H3.38295H3.38771H3.39248H3.39724H3.402H3.40677H3.41154H3.4163H3.42107H3.42583H3.4306H3.43536H3.44013H3.4449H3.44966H3.45443H3.4592H3.46397H3.46873H3.4735H3.47827H3.48304H3.48781H3.49258H3.49734H3.50211H3.50688H3.51165H3.51642H3.52119H3.52596H3.53074H3.53551H3.54028H3.54505H3.54982H3.55459H3.55937H3.56414H3.56891H3.57369H3.57846H3.58324H3.58801H3.59278H3.59756H3.60234H3.60711H3.61189H3.61666H3.62144H3.62622H3.631H3.63577H3.64055H3.64533H3.65011H3.65489H3.65967H3.66445H3.66923H3.67401H3.67879H3.68357H3.68835H3.69314H3.69792H3.7027H3.70749H3.71227H3.71705H3.72184H3.72662H3.73141H3.7362H3.74098H3.74577H3.75056H3.75535H3.76013H3.76492H3.76971H3.7745H3.77929H3.78408H3.78887H3.79366H3.79846H3.80325H3.80804H3.81284H3.81763H3.82242H3.82722H3.83201H3.83681H3.84161H3.8464H3.8512H3.856H3.8608H3.8656H3.8704H3.8752H3.88H3.8848H3.8896H3.8944H3.89921H3.90401H3.90881H3.91362H3.91842H3.92323H3.92803H3.93284H3.93765H3.94246H3.94726H3.95207H3.95688H3.96169H3.96651H3.97132H3.97613H3.98094H3.98575H3.99057H3.99538H4.0002H4.00501H4.00983H4.01465H4.01947H4.02428H4.0291H4.03392H4.03874H4.04357H4.04839H4.05321H4.05803H4.06286H4.06768H4.07251H4.07733H4.08216H4.08699H4.09181H4.09664H4.10147H4.1063H4.11113H4.11596H4.1208H4.12563H4.13046H4.1353H4.14013H4.14497H4.1498H4.15464H4.15948H4.16432H4.16916H4.174H4.17884H4.18368H4.18852H4.19337H4.19821H4.20306H4.2079H4.21275H4.2176H4.22244H4.22729H4.23214H4.23699H4.24184H4.2467H4.25155H4.2564H4.26126H4.26611H4.27097H4.27583H4.28068H4.28554H4.2904H4.29526H4.30012H4.30499H4.30985H4.31471H4.31958H4.32444H4.32931H4.33418H4.33905H4.34392H4.34879H4.35366H4.35853H4.3634H4.36828H4.37315H4.37803H4.3829H4.38778H4.39266H4.39754H4.40242H4.4073H4.41218H4.41706H4.42195H4.42683H4.43172H4.4366H4.44149H4.44638H4.45127H4.45616H4.46105H4.46594H4.47084H4.47573H4.48063H4.48552H4.49042H4.49532H4.50022H4.50512H4.51002H4.51492H4.51983H4.52473H4.52964H4.53454H4.53945H4.54436H4.54927H4.55418H4.55909H4.564H4.56892H4.57383H4.57875H4.58367H4.58858H4.5935H4.59842H4.60335H4.60827H4.61319H4.61812H4.62304H4.62797H4.6329H4.63783H4.64276H4.64769H4.65262H4.65755H4.66249H4.66742H4.67236H4.6773H4.68224H4.68718H4.69212H4.69706H4.702H4.70695H4.7119H4.71684H4.72179H4.72674H4.73169H4.73664H4.7416H4.74655H4.75151H4.75646H4.76142H4.76638H4.77134H4.7763H4.78126H4.78623H4.79119H4.79616H4.80113H4.80609H4.81106H4.81604H4.82101H4.82598H4.83096H4.83593H4.84091H4.84589H4.85087H4.85585H4.86083H4.86582H4.8708H4.87579H4.88077H4.88576H4.89075H4.89574H4.90074H4.90573H4.91073H4.91572H4.92072H4.92572H4.93072H4.93572H4.94073H4.94573H4.95074H4.95574H4.96075H4.96576H4.97077H4.97579H4.9808H4.98582H4.99083H4.99585H5.00087H5.00589H5.01091H5.01594H5.02096H5.02599H5.03101H5.03604H5.04107H5.04611H5.05114H5.05617H5.06121H5.06625H5.07129H5.07633H5.08137H5.08641H5.09146H5.0965H5.10155H5.1066H5.11165H5.1167H5.12176H5.12681H5.13187H5.13692H5.14198H5.14704H5.15211H5.15717H5.16224H5.1673H5.17237H5.17744H5.18251H5.18758H5.19266H5.19773H5.20281H5.20789H5.21297H5.21805H5.22313H5.22822H5.23331H5.23839H5.24348H5.24857H5.25367H5.25876H5.26386H5.26895H5.27405H5.27915H5.28425H5.28936H5.29446H5.29957H5.30468H5.30979H5.3149H5.32001H5.32513H5.33024H5.33536H5.34048H5.3456H5.35072H5.35585H5.36097H5.3661H5.37123H5.37636H5.38149H5.38663H5.39176H5.3969H5.40204H5.40718H5.41232H5.41747H5.42261H5.42776H5.43291H5.43806H5.44321H5.44837H5.45352H5.45868H5.46384H5.469H5.47416H5.47933H5.48449H5.48966H5.49483H5.5H5.50517H5.51035H5.51553H5.5207H5.52588H5.53106H5.53625H5.54143H5.54662H5.55181H5.557H5.56219H5.56739H5.57258H5.57778H5.58298H5.58818H5.59338H5.59859H5.60379H5.609H5.61421H5.61942H5.62464H5.62985H5.63507H5.64029H5.64551H5.65073H5.65596H5.66118H5.66641H5.67164H5.67688H5.68211H5.68734H5.6883H5.68925H5.6902H5.69115H5.69211H5.69306H5.69401H5.69496H5.69591H5.69687H5.69782H5.69877H5.69972H5.70067H5.70163H5.70258H5.70353H5.70448H5.70543H5.70639H5.70734H5.70829H5.70924H5.7102H5.71115H5.7121H5.71305H5.714H5.71496H5.71591H5.71686H5.71781H5.71876H5.71972H5.72067H5.72162H5.72257H5.72353H5.72448H5.72543H5.72638H5.72733H5.72829H5.72924H5.73019H5.73114H5.73209H5.73305H5.734H5.73495H5.7359H5.73686H5.73781H5.73876H5.73971H5.74066H5.74162H5.74257H5.74352H5.74447H5.74542H5.74638H5.74733H5.74828H5.74923H5.75018H5.75114H5.75209H5.75304H5.75399H5.75495H5.7559H5.75685H5.7578H5.75875H5.75971H5.76066H5.76161H5.76256H5.76351H5.76447H5.76542H5.76637H5.76732H5.76827H5.76923H5.77018H5.77113H5.77208H5.77304H5.77399H5.77494H5.77589H5.77684H5.7778H5.77875H5.7797H5.78065H5.7816H5.78256H5.78351H5.78446H5.78541H5.78637H5.78732H5.78827H5.78922H5.79017H5.79113H5.79208H5.79303H5.79398H5.79493H5.79589H5.79684H5.79779H5.79874H5.7997H5.80065H5.8016H5.80255H5.8035H5.80446H5.80541H5.80636H5.80731H5.80826H5.80922H5.81017H5.81112H5.81207H5.81302H5.81398H5.81493H5.81588H5.81683H5.81779H5.81874H5.81969H5.82064H5.82159H5.82255H5.8235H5.82445H5.8254H5.82635H5.82731H5.82826H5.82921H5.83016H5.83112H5.83207H5.83302H5.83397H5.83492H5.83588H5.83683H5.83778H5.83873H5.83968H5.84064H5.84159H5.84254H5.84349H5.84444H5.8454H5.84635H5.8473H5.84825H5.84921H5.85016H5.85111H5.85206H5.85301H5.85397H5.85492H5.85587H5.85682H5.85777H5.85873H5.85968H5.86063H5.86158H5.86254H5.86349H5.86444H5.86539H5.86634H5.8673H5.86825H5.8692H5.87015H5.8711H5.87206H5.87301H5.87396H5.87491H5.87586H5.87682H5.87777H5.87872H5.87967H5.88063H5.88158H5.88253H5.88348H5.88443H5.88539H5.88634H5.88729H5.88824H5.88919H5.89015H5.8911H5.89205H5.893H5.89396H5.89491H5.89586H5.89681H5.89776H5.89872H5.89967H5.90062H5.90157H5.90252H5.90348H5.90443H5.90538H5.90633H5.90729H5.90824H5.90919H5.91014H5.91109H5.91205H5.913H5.91395H5.9149H5.91585H5.91681H5.91776H5.91871H5.91966H5.92061H5.92157H5.92252H5.92347H5.92442H5.92538H5.92633H5.92728H5.92823H5.92918H5.93014H5.93109H5.93204H5.93299H5.93394H5.9349H5.93585H5.9368H5.93775H5.9387H5.93966H5.94061H5.94156H5.94251H5.94347H5.94442H5.94537H5.94632H5.94727H5.94823H5.94918H5.95013H5.95108H5.95203H5.95299H5.95394H5.95489H5.95584H5.9568H5.95775H5.9587H5.95965H5.9606H5.96156H5.96251H5.96346H5.96441H5.96536H5.96632H5.96727H5.96822H5.96917H5.97013H5.97108H5.97203H5.97298H5.97393H5.97489H5.97584H5.97679H5.97774H5.97869H5.97965H5.9806H5.98155H5.9825H5.98346H5.98441H5.98536H5.98631H5.98726H5.98822H5.98917H5.99012H5.99107H5.99202H5.99298H5.99393H5.99488H5.99583H5.99678H5.99774H5.99869H5.99964H6.00059H6.00155H6.0025H6.00345H6.0044H6.00535H6.00631H6.00726H6.00821H6.00916H6.01011H6.01107H6.01202H6.01297H6.01392H6.01487H6.01583H6.01678H6.01773H6.01868H6.01964H6.02059H6.02154H6.02249H6.02344H6.0244H6.02535H6.0263H6.02725H6.0282H6.02916H6.03011H6.03106H6.03201H6.03297H6.03392H6.03487H6.03582H6.03677H6.03773H6.03868H6.03963H6.04058H6.04153H6.04249H6.04344H6.04439H6.04534H6.0463H6.04725H6.0482H6.04915H6.0501H6.05106H6.05201H6.05296H6.05391H6.05486H6.05582H6.05677H6.05772H6.05867H6.05963H6.06058H6.06153H6.06248H6.06343H6.06439H6.06534H6.06629H6.06724H6.06819H6.06915H6.0701H6.07105H6.072H6.07295H6.07391H6.07486H6.07581H6.07676H6.07772H6.07867H6.07962H6.08057H6.08152H6.08248H6.08343H6.08438H6.08533H6.08628H6.08724H6.08819H6.08914H6.09009H6.09104H6.092H6.09295H6.0939H6.09485H6.09581H6.09676H6.09771H6.09866H6.09961H6.10057H6.10152H6.10247H6.10342H6.10437H6.10533H6.10628H6.10723H6.10818H6.10914H6.11009H6.11104H6.11199H6.11294H6.1139H6.11485H6.1158H6.11618L4.0121 10.6315Z" stroke="#272727"/>
<path d="M4.38744 0.5C5.41126 0.5 6.24362 1.33236 6.24362 2.35619C6.24362 3.38001 5.41126 4.21237 4.38744 4.21237C3.36361 4.21237 2.53125 3.38001 2.53125 2.35619C2.53125 1.33236 3.36361 0.5 4.38744 0.5Z" stroke="#272727"/>
<path d="M14.9496 0.5C15.9734 0.5 16.8058 1.33236 16.8058 2.35619C16.8058 3.38001 15.9734 4.21237 14.9496 4.21237C13.9257 4.21237 13.0934 3.38001 13.0934 2.35619C13.0934 1.33236 13.9257 0.5 14.9496 0.5Z" stroke="#272727"/>
<path d="M9.66856 2.36914C10.6924 2.36914 11.5247 3.2015 11.5247 4.22533C11.5247 5.24915 10.6924 6.08151 9.66856 6.08151C8.64474 6.08151 7.81238 5.24915 7.81238 4.22533C7.81238 3.2015 8.64474 2.36914 9.66856 2.36914Z" stroke="#272727"/>
</g>
</svg>
