<svg width="12" height="13" viewBox="0 0 12 13" fill="none" xmlns="http://www.w3.org/2000/svg">
<path opacity="0.8" d="M11.0754 12.5H0.502263C0.535292 11.3612 0.928874 10.3424 1.6194 9.43376C2.21331 8.70448 2.93304 8.12483 3.77516 7.77025L4.63236 7.40933L3.85848 6.89341C3.21417 6.46387 2.79082 5.91445 2.53187 5.18076C2.27523 4.45362 2.27297 3.72767 2.491 2.98637C2.92064 1.52559 4.25027 0.5 5.78868 0.5C7.33263 0.5 8.66235 1.48295 9.13773 2.94506C9.39735 3.81444 9.35111 4.66562 8.967 5.47652L8.96299 5.48499L8.9593 5.49361C8.70808 6.07978 8.28696 6.54739 7.76793 6.89341L6.99058 7.41164L7.85298 7.77097C8.92699 8.21848 9.77713 8.9778 10.362 9.96757L10.362 9.96758L10.3637 9.97046C10.9636 10.9703 11.0617 11.9757 11.0754 12.5Z" stroke="#272727"/>
</svg>
